<svg xmlns="http://www.w3.org/2000/svg" width="40" height="40"><rect width="38.8" height="39.322" x=".6" y=".339" rx="6.09" ry="6.09" fill="#e3e3e3"/><g transform="matrix(1.018 0 0 1.018 -.352 -1030.513)"><path d="M318.571 336.648a18.571 18.571 0 1 1-37.143 0 18.571 18.571 0 1 1 37.143 0z" transform="matrix(.132 0 0 -.132 -29.442 1076.966)" fill="#00b"/><path d="M318.571 336.648a18.571 18.571 0 1 1-37.143 0 18.571 18.571 0 1 1 37.143 0z" transform="matrix(.132 0 0 -.132 -19.301 1076.966)" fill="#008000"/><path d="M318.571 336.648a18.571 18.571 0 1 1-37.143 0 18.571 18.571 0 1 1 37.143 0z" transform="matrix(.132 0 0 -.132 -9.161 1076.966)" fill="#e70000"/></g></svg>